<svg width="101" height="93" viewBox="0 0 101 93" fill="none" xmlns="http://www.w3.org/2000/svg">
<path d="M0 73.6189V81.375C0 87.7869 16.9648 93 37.875 93C58.7852 93 75.75 87.7869 75.75 81.375V73.6189C67.6029 78.9047 52.7094 81.375 37.875 81.375C23.0406 81.375 8.14707 78.9047 0 73.6189ZM63.125 23.25C84.0352 23.25 101 18.0369 101 11.625C101 5.21309 84.0352 0 63.125 0C42.2148 0 25.25 5.21309 25.25 11.625C25.25 18.0369 42.2148 23.25 63.125 23.25ZM0 54.5648V63.9375C0 70.3494 16.9648 75.5625 37.875 75.5625C58.7852 75.5625 75.75 70.3494 75.75 63.9375V54.5648C67.6029 60.7406 52.6896 63.9375 37.875 63.9375C23.0604 63.9375 8.14707 60.7406 0 54.5648ZM82.0625 56.5629C93.3658 54.5467 101 50.8049 101 46.5V38.7439C96.4234 41.7229 89.6967 43.7572 82.0625 45.0105V56.5629ZM37.875 29.0625C16.9648 29.0625 0 35.5652 0 43.5938C0 51.6223 16.9648 58.125 37.875 58.125C58.7852 58.125 75.75 51.6223 75.75 43.5938C75.75 35.5652 58.7852 29.0625 37.875 29.0625ZM81.1353 39.2889C92.9713 37.3271 101 33.4764 101 29.0625V21.3064C93.9971 25.8656 81.9639 28.3178 69.2994 28.899C75.1187 31.4965 79.3994 34.984 81.1353 39.2889Z" fill="#E7CD20"/>
</svg>
