<svg width="1031" height="632" viewBox="0 0 1031 632" fill="none" xmlns="http://www.w3.org/2000/svg">
<g filter="url(#filter0_dd_203_71)">
<path d="M4 555.5H255V627.5H4V555.5Z" fill="black"/>
<path d="M260 555.5H511V627.5H260V555.5Z" fill="black"/>
<path d="M518 555.5H769V627.5H518V555.5Z" fill="black"/>
<path d="M4 476H132.5V548H4V476Z" fill="black"/>
<path d="M142 476H267.5H393V548H267.5H142V476Z" fill="black"/>
<path d="M400.5 476H651.5V548H400.5V476Z" fill="black"/>
<path d="M776 555.5H1027V627.5H776V555.5Z" fill="black"/>
<path d="M658 476H909V548H658V476Z" fill="black"/>
<path d="M4 396H255V468H4V396Z" fill="black"/>
<path d="M262 396H513V468H262V396Z" fill="black"/>
<path d="M520 396H771V468H520V396Z" fill="black"/>
<path d="M4 315H132.5V387H4V315Z" fill="black"/>
<path d="M142 315H267.5H393V387H267.5H142V315Z" fill="black"/>
<path d="M400.5 315H651.5V387H400.5V315Z" fill="black"/>
<path d="M4 236H129.5H255V308H129.5H4V236Z" fill="black"/>
<path d="M262.5 236H513.5V308H262.5V236Z" fill="black"/>
<path d="M4 157H132.5V229H4V157Z" fill="black"/>
<path d="M142 157H267.5H393V229H267.5H142V157Z" fill="black"/>
<path d="M4 80H129.5H255V152H129.5H4V80Z" fill="black"/>
<path d="M4 157H132.5V229H4V157Z" fill="black"/>
<path d="M4 0H132.5V72H4V0Z" fill="black"/>
</g>
<defs>
<filter id="filter0_dd_203_71" x="0" y="0" width="1031" height="635.5" filterUnits="userSpaceOnUse" color-interpolation-filters="sRGB">
<feFlood flood-opacity="0" result="BackgroundImageFix"/>
<feColorMatrix in="SourceAlpha" type="matrix" values="0 0 0 0 0 0 0 0 0 0 0 0 0 0 0 0 0 0 127 0" result="hardAlpha"/>
<feOffset dy="4"/>
<feGaussianBlur stdDeviation="2"/>
<feComposite in2="hardAlpha" operator="out"/>
<feColorMatrix type="matrix" values="0 0 0 0 0 0 0 0 0 0 0 0 0 0 0 0 0 0 0.25 0"/>
<feBlend mode="normal" in2="BackgroundImageFix" result="effect1_dropShadow_203_71"/>
<feColorMatrix in="SourceAlpha" type="matrix" values="0 0 0 0 0 0 0 0 0 0 0 0 0 0 0 0 0 0 127 0" result="hardAlpha"/>
<feOffset dy="4"/>
<feGaussianBlur stdDeviation="2"/>
<feComposite in2="hardAlpha" operator="out"/>
<feColorMatrix type="matrix" values="0 0 0 0 0 0 0 0 0 0 0 0 0 0 0 0 0 0 0.25 0"/>
<feBlend mode="normal" in2="effect1_dropShadow_203_71" result="effect2_dropShadow_203_71"/>
<feBlend mode="normal" in="SourceGraphic" in2="effect2_dropShadow_203_71" result="shape"/>
</filter>
</defs>
</svg>
