<svg width="101" height="95" viewBox="0 0 101 95" fill="none" xmlns="http://www.w3.org/2000/svg">
<g clip-path="url(#clip0_229_23)">
<path d="M43.2406 52.5468L33.1406 40.9686H20.8298L43.2406 68.8762L80.1687 26.1262H67.5437L43.2406 52.5468Z" fill="#E7CD20"/>
<path d="M91.5312 0H9.46875C4.10172 0 0 3.85937 0 8.90625V86.0924C0 91.1406 4.10172 95 9.46875 95H91.5312C96.8969 95 101 91.1406 101 86.0924V8.90625C101 3.85937 96.8969 0 91.5312 0ZM35.35 6.23438C37.2438 6.23438 39.1375 7.71875 39.1375 9.79688C39.1375 11.8737 37.5594 13.3594 35.35 13.3594C33.1406 13.3594 31.5625 11.5781 31.5625 9.79688C31.5625 8.01562 33.1406 6.23438 35.35 6.23438ZM24.6188 6.23438C26.5125 6.23438 28.4062 7.71875 28.4062 9.79688C28.4062 11.8737 26.8295 13.3594 24.6188 13.3594C22.408 13.3594 20.8313 11.875 20.8313 9.79688C20.8298 7.71875 22.725 6.23438 24.6188 6.23438ZM14.2031 6.23438C16.0969 6.23438 17.9906 7.71875 17.9906 9.79688C17.9906 11.8737 16.4125 13.3594 14.2031 13.3594C12.308 13.3594 10.4156 11.875 10.4156 9.79688C10.4156 7.71875 12.3094 6.23438 14.2031 6.23438ZM89.9531 78.6705C89.9531 81.9388 87.1111 84.608 83.6406 84.608H17.3594C13.8875 84.608 11.0483 81.9362 11.0483 78.6705V25.2344C11.0483 21.9688 13.8889 19.2982 17.3594 19.2982H44.1875C50.5 19.2982 50.1844 19.2982 50.1844 16.3295C50.1844 12.1732 53.3392 10.3933 56.8125 10.3933H83.6392C87.1139 10.3933 89.9517 13.0652 89.9517 16.3295V78.6705H89.9531Z" fill="#E7CD20"/>
</g>
<defs>
<clipPath id="clip0_229_23">
<rect width="101" height="95" fill="white"/>
</clipPath>
</defs>
</svg>
