<svg width="91" height="103" viewBox="0 0 91 103" fill="none" xmlns="http://www.w3.org/2000/svg">
<path d="M89.363 14.4155C89.1817 13.0875 88.2448 11.9951 86.9782 11.6361L46.3846 0.12344C45.8059 -0.0408212 45.1946 -0.0408212 44.6154 0.12344L4.02179 11.6361C2.75522 11.9951 1.81827 13.0871 1.63695 14.4155C1.40151 16.1421 -3.96976 56.9363 9.80717 77.2303C23.5678 97.4999 43.8677 102.694 44.725 102.906C44.9798 102.969 45.2395 103 45.5 103C45.7605 103 46.0202 102.968 46.275 102.906C47.1327 102.694 67.4326 97.4999 81.1928 77.2303C94.9698 56.9368 89.5985 16.1425 89.363 14.4155ZM71.6777 38.2316L43.9887 66.4689C43.3445 67.1259 42.4995 67.4549 41.655 67.4549C40.8104 67.4549 39.9655 67.1264 39.3212 66.4689L22.2013 49.0101C21.5821 48.3791 21.2345 47.5227 21.2345 46.6301C21.2345 45.7374 21.5826 44.8811 22.2013 44.2501L25.6006 40.7835C26.8896 39.4694 28.9796 39.469 30.2681 40.7835L41.655 52.3958L63.6109 30.0047C64.2297 29.3732 65.0694 29.0186 65.9447 29.0186C66.82 29.0186 67.6597 29.3732 68.2785 30.0047L71.6777 33.4712C72.9667 34.7857 72.9667 36.9171 71.6777 38.2316Z" fill="#E7CD20"/>
</svg>
