<svg width="109" height="86" viewBox="0 0 109 86" fill="none" xmlns="http://www.w3.org/2000/svg">
<path d="M84.475 37.625C70.9181 37.625 59.95 48.4422 59.95 61.8125C59.95 75.1828 70.9147 86 84.475 86C98.0353 86 109 75.1862 109 61.8125C109 48.4388 98.0319 37.625 84.475 37.625ZM92.65 64.5H83.4105C82.4994 64.5 81.75 63.7609 81.75 62.8707V51.0625C81.75 49.5844 82.9762 48.375 84.475 48.375C85.9737 48.375 87.2 49.5844 87.2 51.0625V59.125H92.65C94.1552 59.125 95.375 60.328 95.375 61.8125C95.375 63.2906 94.1488 64.5 92.65 64.5ZM54.517 59.125H35.425C33.9263 59.125 32.7 57.9156 32.7 56.4375V48.375H0V72.5625C0 76.8625 3.8167 80.625 8.175 80.625H61.3466C57.0717 75.5188 54.5 68.9512 54.5 61.8125C54.5 60.9055 54.5852 60.0152 54.517 59.125ZM84.475 32.25C85.395 32.25 86.3008 32.3054 87.2 32.3855V24.1875C87.2 19.8875 83.385 16.125 79.025 16.125H65.4V8.0625C65.4 3.76418 61.585 0 57.225 0H29.975C25.615 0 21.8 3.76418 21.8 8.0625V16.125H8.175C3.8167 16.125 0 19.8875 0 24.1875V43H61.3466C66.8477 36.4324 75.1589 32.25 84.475 32.25ZM57.225 16.125H29.975V8.0625H57.225V16.125Z" fill="#E7CD20"/>
</svg>
